<mxfile host="app.diagrams.net" modified="2021-09-06T09:03:55.632Z" agent="5.0 (Macintosh; Intel Mac OS X 10_15_7) AppleWebKit/605.1.15 (KHTML, like Gecko) Version/14.1.2 Safari/605.1.15" etag="xQ91_K0zxDK-S724Fiqe" version="15.0.6" type="github" pages="2">
  <diagram id="RJTE_h8VSLth2EyMXipS" name="Page-1">
    <mxGraphModel dx="1102" dy="737" grid="1" gridSize="10" guides="1" tooltips="1" connect="1" arrows="1" fold="1" page="1" pageScale="1" pageWidth="827" pageHeight="1169" math="0" shadow="0">
      <root>
        <mxCell id="0" />
        <mxCell id="1" parent="0" />
        <mxCell id="ngPSNZj2wwppvjVVl-Cq-1" value="S3-Bucket" style="verticalLabelPosition=bottom;html=1;verticalAlign=top;strokeWidth=1;align=center;outlineConnect=0;dashed=0;outlineConnect=0;shape=mxgraph.aws3d.s3Bucket;fillColor=#4286c5;strokeColor=#57A2D8;aspect=fixed;" parent="1" vertex="1">
          <mxGeometry x="480" y="92" width="61.5" height="63.800000000000004" as="geometry" />
        </mxCell>
        <mxCell id="ngPSNZj2wwppvjVVl-Cq-13" style="edgeStyle=orthogonalEdgeStyle;rounded=0;orthogonalLoop=1;jettySize=auto;html=1;" parent="1" source="ngPSNZj2wwppvjVVl-Cq-4" target="ngPSNZj2wwppvjVVl-Cq-1" edge="1">
          <mxGeometry relative="1" as="geometry" />
        </mxCell>
        <mxCell id="ngPSNZj2wwppvjVVl-Cq-4" value="&lt;b style=&quot;color: rgb(32 , 33 , 36) ; font-family: &amp;#34;arial&amp;#34; , sans-serif ; text-align: left&quot;&gt;&lt;font style=&quot;font-size: 8px&quot;&gt;http://s3.amazonaws.com/[bucket_name]/&lt;/font&gt;&lt;/b&gt;" style="shape=image;html=1;verticalAlign=top;verticalLabelPosition=bottom;labelBackgroundColor=#ffffff;imageAspect=0;aspect=fixed;image=https://cdn3.iconfinder.com/data/icons/fatcow/32/link_go.png" parent="1" vertex="1">
          <mxGeometry x="260" y="60" width="32" height="32" as="geometry" />
        </mxCell>
        <mxCell id="ngPSNZj2wwppvjVVl-Cq-5" value="User account" style="aspect=fixed;perimeter=ellipsePerimeter;html=1;align=center;shadow=0;dashed=0;spacingTop=3;image;image=img/lib/active_directory/user_accounts.svg;" parent="1" vertex="1">
          <mxGeometry x="60" y="50" width="50" height="48.5" as="geometry" />
        </mxCell>
        <mxCell id="ngPSNZj2wwppvjVVl-Cq-10" style="edgeStyle=orthogonalEdgeStyle;rounded=0;orthogonalLoop=1;jettySize=auto;html=1;" parent="1" source="ngPSNZj2wwppvjVVl-Cq-9" edge="1">
          <mxGeometry relative="1" as="geometry">
            <mxPoint x="510" y="178" as="targetPoint" />
          </mxGeometry>
        </mxCell>
        <mxCell id="ngPSNZj2wwppvjVVl-Cq-11" value="S3-API" style="edgeLabel;html=1;align=center;verticalAlign=middle;resizable=0;points=[];" parent="ngPSNZj2wwppvjVVl-Cq-10" vertex="1" connectable="0">
          <mxGeometry x="-0.2955" y="1" relative="1" as="geometry">
            <mxPoint as="offset" />
          </mxGeometry>
        </mxCell>
        <mxCell id="ngPSNZj2wwppvjVVl-Cq-9" value="Application" style="shape=image;html=1;verticalAlign=top;verticalLabelPosition=bottom;labelBackgroundColor=#ffffff;imageAspect=0;aspect=fixed;image=https://cdn2.iconfinder.com/data/icons/amazon-aws-stencils/100/SDKs_copy_Java-128.png" parent="1" vertex="1">
          <mxGeometry x="50" y="198" width="80" height="80" as="geometry" />
        </mxCell>
        <mxCell id="ngPSNZj2wwppvjVVl-Cq-15" value="" style="endArrow=none;html=1;entryX=0;entryY=0.75;entryDx=0;entryDy=0;" parent="1" edge="1">
          <mxGeometry width="50" height="50" relative="1" as="geometry">
            <mxPoint x="120" y="77" as="sourcePoint" />
            <mxPoint x="260" y="77" as="targetPoint" />
          </mxGeometry>
        </mxCell>
      </root>
    </mxGraphModel>
  </diagram>
  <diagram id="SAObJG75OWpJmbOQa_pi" name="Page-2">
    <mxGraphModel dx="1102" dy="737" grid="1" gridSize="10" guides="1" tooltips="1" connect="1" arrows="1" fold="1" page="1" pageScale="1" pageWidth="827" pageHeight="1169" math="0" shadow="0">
      <root>
        <mxCell id="afgh8W0y2aVcc69Eiy0E-0" />
        <mxCell id="afgh8W0y2aVcc69Eiy0E-1" parent="afgh8W0y2aVcc69Eiy0E-0" />
        <mxCell id="afgh8W0y2aVcc69Eiy0E-3" style="edgeStyle=orthogonalEdgeStyle;rounded=0;orthogonalLoop=1;jettySize=auto;html=1;" parent="afgh8W0y2aVcc69Eiy0E-1" source="afgh8W0y2aVcc69Eiy0E-4" edge="1">
          <mxGeometry relative="1" as="geometry">
            <mxPoint x="480" y="110" as="targetPoint" />
          </mxGeometry>
        </mxCell>
        <mxCell id="afgh8W0y2aVcc69Eiy0E-4" value="&lt;b style=&quot;color: rgb(32 , 33 , 36) ; font-family: &amp;#34;arial&amp;#34; , sans-serif ; text-align: left&quot;&gt;&lt;font style=&quot;font-size: 8px&quot;&gt;//&amp;lt;HOST&amp;gt;/&amp;lt;FOLDER_NAME&amp;gt;/&amp;lt;IMAGE&amp;gt;&lt;/font&gt;&lt;/b&gt;" style="shape=image;html=1;verticalAlign=top;verticalLabelPosition=bottom;labelBackgroundColor=#ffffff;imageAspect=0;aspect=fixed;image=https://cdn3.iconfinder.com/data/icons/fatcow/32/link_go.png" parent="afgh8W0y2aVcc69Eiy0E-1" vertex="1">
          <mxGeometry x="260" y="60" width="32" height="32" as="geometry" />
        </mxCell>
        <mxCell id="afgh8W0y2aVcc69Eiy0E-5" value="User account" style="aspect=fixed;perimeter=ellipsePerimeter;html=1;align=center;shadow=0;dashed=0;spacingTop=3;image;image=img/lib/active_directory/user_accounts.svg;" parent="afgh8W0y2aVcc69Eiy0E-1" vertex="1">
          <mxGeometry x="60" y="50" width="50" height="48.5" as="geometry" />
        </mxCell>
        <mxCell id="afgh8W0y2aVcc69Eiy0E-6" style="edgeStyle=orthogonalEdgeStyle;rounded=0;orthogonalLoop=1;jettySize=auto;html=1;entryX=0.613;entryY=1.013;entryDx=0;entryDy=0;entryPerimeter=0;" parent="afgh8W0y2aVcc69Eiy0E-1" source="afgh8W0y2aVcc69Eiy0E-8" edge="1" target="ipdxsDrqrWAuk1Y7_ozC-0">
          <mxGeometry relative="1" as="geometry">
            <mxPoint x="510" y="178" as="targetPoint" />
          </mxGeometry>
        </mxCell>
        <mxCell id="afgh8W0y2aVcc69Eiy0E-7" value="JAVA FILE IO" style="edgeLabel;html=1;align=center;verticalAlign=middle;resizable=0;points=[];" parent="afgh8W0y2aVcc69Eiy0E-6" vertex="1" connectable="0">
          <mxGeometry x="-0.2955" y="1" relative="1" as="geometry">
            <mxPoint as="offset" />
          </mxGeometry>
        </mxCell>
        <mxCell id="afgh8W0y2aVcc69Eiy0E-8" value="Application" style="shape=image;html=1;verticalAlign=top;verticalLabelPosition=bottom;labelBackgroundColor=#ffffff;imageAspect=0;aspect=fixed;image=https://cdn2.iconfinder.com/data/icons/amazon-aws-stencils/100/SDKs_copy_Java-128.png" parent="afgh8W0y2aVcc69Eiy0E-1" vertex="1">
          <mxGeometry x="50" y="198" width="80" height="80" as="geometry" />
        </mxCell>
        <mxCell id="afgh8W0y2aVcc69Eiy0E-9" value="" style="endArrow=none;html=1;entryX=0;entryY=0.75;entryDx=0;entryDy=0;" parent="afgh8W0y2aVcc69Eiy0E-1" edge="1">
          <mxGeometry width="50" height="50" relative="1" as="geometry">
            <mxPoint x="120" y="77" as="sourcePoint" />
            <mxPoint x="260" y="77" as="targetPoint" />
          </mxGeometry>
        </mxCell>
        <mxCell id="ipdxsDrqrWAuk1Y7_ozC-0" value="" style="image;html=1;image=img/lib/clip_art/general/Full_Folder_128x128.png" vertex="1" parent="afgh8W0y2aVcc69Eiy0E-1">
          <mxGeometry x="460" y="118" width="80" height="80" as="geometry" />
        </mxCell>
        <mxCell id="ipdxsDrqrWAuk1Y7_ozC-3" value="&lt;h1&gt;Shared Folder&lt;/h1&gt;&lt;p&gt;1. Accessible by authenticated user group(s) only.&lt;/p&gt;&lt;p&gt;2. Regular clean activity has to be defined. Files should be deleted after 30 days.&lt;/p&gt;" style="text;html=1;fillColor=none;spacing=5;spacingTop=-20;whiteSpace=wrap;overflow=hidden;rounded=0;strokeColor=#000000;" vertex="1" parent="afgh8W0y2aVcc69Eiy0E-1">
          <mxGeometry x="550" y="60" width="190" height="162" as="geometry" />
        </mxCell>
      </root>
    </mxGraphModel>
  </diagram>
</mxfile>
